<svg viewBox="0 0 396.8 396.8" xmlns="http://www.w3.org/2000/svg"><g fill="none" stroke="#000" stroke-miterlimit="10" stroke-width="13"><path d="m178 310.7-92.7-92.7 151.4-151.5c24.8-24.8 56.4-41.8 90.8-48.9l52.1-10.7c4.7-1 8.8 3.1 7.9 7.8l-9.8 52c-6.7 35.6-23.9 68.3-49.5 93.9z"/><circle cx="258.7" cy="138.5" r="31.8"/><path d="m306 24.8s6.7 54 65.5 65.5m-227.3 228.4-65.6-65.6 27.2-13.8 52.2 52.2zm32.1-193.5-38.8-12.1-91.4 91.4 38.8 12.1m183.7.9 12 38.8-91.4 91.4-12.1-38.8"/><path d="m34.7 322-24.5 24.6m44.1-44.2-6 6m25.4-25.4-9.4 9.4m24.8 62.6 28.3-28.3m-40.6 40.6 2.5-2.5m-25.4 25.4 9.3-9.3m35-76-71.8 71.7" stroke-linecap="round" stroke-linejoin="round"/></g></svg>